<?xml version="1.0" standalone="no"?><!DOCTYPE svg PUBLIC "-//W3C//DTD SVG 1.1//EN" "http://www.w3.org/Graphics/SVG/1.1/DTD/svg11.dtd"><svg t="1522207753916" class="icon" style="" viewBox="0 0 1024 1024" version="1.1" xmlns="http://www.w3.org/2000/svg" p-id="2820" xmlns:xlink="http://www.w3.org/1999/xlink" width="200" height="200"><defs><style type="text/css"></style></defs><path d="M430.535111 1020.131556C150.072889 992.455111 0 816.526222 0 512 0 179.2 179.2 0 512 0s512 179.2 512 512c0 304.526222-150.044444 480.426667-430.535111 508.131556L512 938.666667l-81.464889 81.464889zM170.666667 739.555556h198.428444v-65.194667H237.226667V540.728889h114.858666v-61.354667H237.255111v-133.603555h131.84V284.444444H170.666667v455.111112z m229.262222 0h66.56v-194.304h39.822222L568.32 739.555556h70.485333l-71.793777-207.729778c21.333333-11.52 36.238222-26.652444 44.714666-45.397334 8.476444-18.773333 12.714667-41.528889 12.714667-68.380444 0-89.059556-39.139556-133.603556-117.475556-133.603556H399.928889v455.111112z m265.813333 0h66.56v-177.692445h33.962667c24.775111 0 44.8-4.152889 60.017778-12.458667 15.246222-8.334222 27.420444-19.911111 36.579555-34.844444 7.822222-12.373333 12.942222-25.571556 15.331556-39.623111 2.389333-14.08 3.584-31.317333 3.584-51.768889 0-27.306667-2.161778-48.924444-6.542222-64.881778a96.910222 96.910222 0 0 0-23.495112-41.870222 92.814222 92.814222 0 0 0-37.831111-24.945778c-13.937778-4.693333-30.037333-7.025778-48.298666-7.025778h-99.868445v455.111112zM466.488889 345.799111h34.616889c23.04 0 38.712889 5.973333 46.990222 17.92 3.896889 6.371556 6.542222 13.937778 7.822222 22.670222 1.308444 8.732444 1.962667 18.858667 1.962667 30.378667 0 11.491556-0.654222 21.617778-1.962667 30.350222-1.308444 8.732444-3.697778 16.099556-7.168 22.044445-3.925333 5.973333-9.386667 10.552889-16.327111 13.767111-6.968889 3.185778-16.327111 4.778667-28.074667 4.778666h-37.831111v-141.909333z m265.813333 0h34.588445c13.084444 0 23.068444 1.934222 30.037333 5.774222 6.968889 3.811556 12.174222 9.386667 15.644444 16.611556 3.498667 7.253333 5.461333 15.644444 5.888 25.230222 0.455111 9.614222 0.654222 19.712 0.654223 30.378667 0 11.491556-0.312889 21.930667-0.967111 31.317333a57.457778 57.457778 0 0 1-6.200889 23.637333c-3.498667 6.826667-8.931556 12.145778-16.327111 15.985778-7.395556 3.84-17.834667 5.774222-31.317334 5.774222h-32v-154.709333z" p-id="2821" data-spm-anchor-id="a313x.7781069.0.i10" class="selected" fill="#d3d4f4"></path></svg>